<svg width="48" height="31" viewBox="0 0 48 31" fill="none" xmlns="http://www.w3.org/2000/svg">
<path d="M38.71 11.6928C37.35 5.02781 31.28 0 24 0C18.22 0 13.21 3.1775 10.7 7.81781C4.69 8.4475 0 13.3784 0 19.375C0 25.7978 5.37 31 12 31H38C43.52 31 48 26.66 48 21.3125C48 16.1975 43.89 12.0512 38.71 11.6928ZM38 27.125H12C7.58 27.125 4 23.6569 4 19.375C4 15.0931 7.58 11.625 12 11.625H13.42C14.73 7.15906 18.96 3.875 24 3.875C30.08 3.875 35 8.64125 35 14.5312V15.5H38C41.31 15.5 44 18.1059 44 21.3125C44 24.5191 41.31 27.125 38 27.125Z" fill="#F5E8C7"/>
</svg>
