<svg width="38" height="32" viewBox="0 0 38 32" fill="none" xmlns="http://www.w3.org/2000/svg">
<path d="M27.2087 10.3717C28.3435 9.21992 29.47 6.53237 24.7418 9.79582C20.325 12.8812 15.8783 15.9223 11.4022 18.9184C10.7206 19.2313 9.98378 19.4011 9.23591 19.4175C8.48805 19.434 7.74461 19.2969 7.05027 19.0144C4.21337 18.1506 0.901601 16.9988 0.901601 16.9988C0.901601 16.9988 -1.3597 15.5569 2.51123 14.0212C2.51123 14.0212 18.8769 7.20426 24.5527 4.80258C26.7277 3.84274 34.1057 0.771259 34.1057 0.771259C34.1057 0.771259 37.512 -0.5746 37.2283 2.69093C37.1337 4.03471 36.3772 8.74208 35.6207 13.8292C34.4839 21.0301 33.2546 28.9049 33.2546 28.9049C33.2546 28.9049 33.0655 31.1126 31.4579 31.4965C29.737 31.4669 28.0743 30.8594 26.7297 29.7688C26.3515 29.4808 19.6354 25.1595 17.1747 23.0478C16.9244 22.8757 16.721 22.6421 16.5836 22.3688C16.4461 22.0955 16.3789 21.7914 16.3884 21.4846C16.3978 21.1779 16.4835 20.8786 16.6375 20.6145C16.7916 20.3504 17.0089 20.1302 17.2693 19.9743C20.6443 16.84 23.958 13.6386 27.2087 10.3717Z" fill="#F5E8C7"/>
</svg>
