<svg width="36" height="30" viewBox="0 0 36 30" fill="none" xmlns="http://www.w3.org/2000/svg">
<path d="M35.8333 3.49483C34.4866 4.07908 33.0624 4.46531 31.605 4.64149C33.1426 3.72294 34.2948 2.27789 34.8479 0.574409C33.403 1.43452 31.8214 2.04052 30.1717 2.36608C29.069 1.17027 27.6006 0.374273 25.9967 0.102934C24.3929 -0.168404 22.7444 0.100259 21.3097 0.86679C19.875 1.63332 18.7353 2.85436 18.0694 4.33841C17.4034 5.82245 17.2489 7.48557 17.63 9.06691C14.7086 8.91914 11.8509 8.15845 9.24259 6.83424C6.63431 5.51004 4.33377 3.65194 2.49042 1.38066C1.84387 2.50971 1.50414 3.78834 1.505 5.08941C1.50271 6.29768 1.79922 7.48776 2.36814 8.55371C2.93707 9.61966 3.76074 10.5284 4.76583 11.199C3.59763 11.1672 2.45438 10.8537 1.43333 10.2852V10.3748C1.44209 12.0678 2.03532 13.7057 3.11269 15.0116C4.19005 16.3175 5.68542 17.2112 7.34583 17.5415C6.70667 17.736 6.04307 17.8386 5.375 17.8461C4.91255 17.8407 4.45126 17.7987 3.99542 17.7207C4.46826 19.1769 5.38328 20.4496 6.61318 21.3616C7.84307 22.2736 9.32666 22.7795 10.8575 22.809C8.27249 24.843 5.08096 25.9531 1.79167 25.9623C1.19278 25.9643 0.59436 25.9284 0 25.8548C3.35835 28.0232 7.27204 29.1743 11.2696 29.1694C14.0282 29.1981 16.7649 28.6767 19.3197 27.6359C21.8746 26.595 24.1965 25.0555 26.1497 23.1073C28.103 21.1591 29.6484 18.8411 30.6958 16.2889C31.7432 13.7367 32.2716 11.0014 32.25 8.24274C32.25 7.93816 32.25 7.61566 32.25 7.29316C33.6559 6.24469 34.8685 4.95938 35.8333 3.49483Z" fill="#F5E8C7"/>
</svg>
