<svg width="124" height="161" viewBox="0 0 124 161" fill="none" xmlns="http://www.w3.org/2000/svg">
<path d="M47.9761 87.1536C47.1711 84.42 46.0441 82.008 44.2731 79.9176C41.6971 76.8624 37.8331 74.6112 33.6471 73.6464H33.4861C30.2661 72.8424 26.7241 72.8424 23.1821 73.4856L24.4701 79.7568C25.5971 79.596 26.8851 79.4352 28.0121 79.4352C27.2071 81.3648 26.8851 83.1336 26.8851 83.1336C26.5631 86.028 27.5291 88.7616 29.3001 91.0128C31.2321 93.264 33.8081 94.5504 36.7061 94.872C37.0281 94.872 37.5111 94.872 37.8331 94.872C39.2821 94.872 40.5701 94.5504 41.8581 94.068C41.6971 95.9976 41.0531 98.088 40.2481 100.339L46.2051 102.59C48.2981 96.9624 48.9421 91.8168 47.8151 87.3144C47.9761 87.4752 47.9761 87.3144 47.9761 87.1536ZM40.2481 87.9576C39.4431 88.44 38.4771 88.6008 37.3501 88.6008C36.0621 88.44 34.9351 87.9576 34.1301 86.9928C33.3251 86.1888 33.0031 85.0632 33.1641 83.9376C33.1641 83.2944 33.8081 81.8472 34.4521 80.7216C36.3841 81.5256 38.1551 82.6512 39.2821 84.2592C39.9261 85.0632 40.5701 86.028 40.8921 86.9928C40.7311 87.3144 40.4091 87.636 40.2481 87.9576Z" fill="#F5E8C7"/>
<path d="M78.7271 79.9176C74.0581 85.5456 73.2531 93.7463 76.7951 102.751L82.7521 100.5C81.9471 98.2488 81.4641 96.1584 81.1421 94.2288C82.4301 94.7112 83.7181 95.0328 85.1671 95.0328C85.4891 95.0328 85.9721 95.0328 86.2941 95.0328C92.4121 94.3896 96.7591 89.0832 96.1151 83.2944C95.9541 82.3296 95.6321 80.8824 95.1491 79.596C96.2761 79.596 97.4031 79.7568 98.5301 79.9176L99.6571 73.6464C91.6071 71.8776 83.3961 74.4504 78.7271 79.9176ZM85.6501 88.6008C84.6841 88.7616 83.5571 88.44 82.7521 87.9576C82.4301 87.636 82.2691 87.4752 81.9471 87.3144C82.4301 86.1888 82.9131 85.2239 83.7181 84.2591C85.0061 82.6511 86.7771 81.5256 88.8701 80.7216C89.3531 81.6864 89.8361 82.9728 89.8361 83.9376C89.9971 86.1888 88.2261 88.2792 85.6501 88.6008Z" fill="#F5E8C7"/>
<path d="M118.655 83.4551C117.85 73.0031 119.299 61.2648 120.587 49.848C123.002 28.1399 125.417 7.55754 111.249 2.25114C103.521 -0.643259 94.505 0.643141 86.133 6.27114C73.575 14.4719 64.72 29.5871 63.593 44.22C61.983 44.22 60.212 44.22 58.602 44.22C57.475 29.4263 48.62 14.1504 36.062 6.11038C27.851 0.80398 19.157 -0.48245 11.59 2.41195C-2.41696 7.87915 -0.00195312 28.3008 2.41305 50.0088C3.70105 61.4256 4.98904 73.164 4.34504 83.616C1.44704 90.3696 -0.00195312 97.284 -0.00195312 104.198C-0.00195312 120.761 9.17504 126.067 20.767 132.66L22.538 133.625C25.919 141.182 32.52 148.418 42.18 149.383C45.561 156.298 51.679 159.996 60.534 160.639C61.017 160.639 61.5 160.639 62.144 160.639C70.355 160.639 77.278 156.619 81.464 149.383C91.768 148.579 98.5301 140.7 101.911 132.821C103.038 132.178 104.004 131.534 104.97 130.891C114.791 124.781 123.163 119.474 123.163 104.198C123.163 97.284 121.553 90.2087 118.655 83.4551ZM60.8561 154.046C55.5431 153.725 51.84 152.117 49.425 148.74C54.738 147.614 59.246 144.72 61.983 140.7C64.72 144.559 68.906 147.454 74.058 148.579C71.321 151.634 67.2961 154.529 60.8561 154.046ZM48.137 114.972C48.137 112.238 58.441 112.238 61.822 112.238C65.203 112.238 75.507 112.238 75.507 114.972C75.346 117.866 48.137 117.866 48.137 114.972ZM103.038 124.298C102.555 118.349 99.9791 110.952 93.8611 105.806L89.675 110.63C96.759 116.58 97.0811 126.55 96.2761 128.962C93.8611 135.715 88.226 142.951 79.693 142.951C72.287 142.951 66.33 138.449 65.042 132.499C65.203 131.856 65.203 131.052 65.203 130.409C72.287 128.318 81.625 121.404 81.625 114.972C81.625 105.806 69.067 105.806 61.5 105.806C53.933 105.806 41.375 105.806 41.375 114.972C41.375 121.404 51.035 128.64 58.28 130.57C58.28 131.213 58.2801 131.856 58.4411 132.499C57.1531 138.449 51.196 142.951 43.79 142.951C35.257 142.951 29.622 135.715 27.207 128.962C26.241 126.389 27.046 115.776 33.647 110.791L29.622 105.646C23.182 110.63 20.606 118.992 20.445 125.102C11.268 119.796 5.95504 115.454 5.95504 103.877C5.95504 97.9272 7.24303 91.8168 9.81903 85.7064C9.81903 85.7064 10.1411 85.0632 10.1411 84.7416C12.7171 78.792 16.5811 73.0032 21.4111 67.8576L16.742 63.516C14.327 66.0888 12.234 68.6615 10.463 71.3951C10.141 63.9983 9.33605 56.4407 8.53105 48.8831C6.43805 29.7479 4.34505 11.5776 13.683 8.03995C14.166 7.87915 14.81 7.71837 15.293 7.55757C19.157 6.75357 22.86 8.03997 26.402 11.5776C33.647 18.9744 38.316 35.0543 34.613 48.0791C33.647 48.4007 32.8421 48.7224 31.8761 49.044L34.13 55.1544C39.121 53.3856 44.112 52.0991 49.264 51.2951C48.781 55.9583 47.01 65.6064 46.205 67.6968L52.323 69.7871C52.645 68.8223 55.382 56.2799 55.704 50.4911C56.187 50.4911 56.831 50.4912 57.314 50.3304L57.153 73.3248H63.593L63.754 50.1696C64.237 50.1696 64.881 50.1696 65.364 50.3304C65.525 55.9584 68.262 68.8223 68.584 69.7871L74.702 67.6968C73.897 65.4456 72.126 55.476 71.804 50.9736C75.185 51.456 78.566 52.0992 81.947 53.064V53.2248H82.108C84.201 53.868 86.1331 54.5112 88.2261 55.1544L90.48 49.044C89.353 48.5616 88.065 48.24 86.938 47.7576C83.235 34.8936 87.904 18.9744 95.149 11.5776C98.852 7.87917 102.716 6.43195 106.741 7.23595C107.385 7.39675 107.868 7.55758 108.512 7.71838C118.011 11.256 115.918 29.4264 113.825 48.5616C113.02 55.9584 112.054 63.6768 111.732 70.9128C109.8 68.1792 107.707 65.4456 105.453 63.0336L100.784 67.3751C105.614 72.5207 109.478 78.3095 112.054 84.2591C112.054 84.5807 112.376 85.224 112.376 85.224C114.952 91.1736 116.24 97.4448 116.24 103.234C116.723 115.133 111.571 118.992 103.038 124.298Z" fill="#F5E8C7"/>
</svg>
